<svg xmlns="http://www.w3.org/2000/svg" width="50" height="50" viewBox="0 0 50 50">
  <g id="edit-photo" transform="translate(12986 11035)">
    <circle id="Ellipse_48" data-name="Ellipse 48" cx="25" cy="25" r="25" transform="translate(-12986 -11035)" fill="#a31e22"/>
    <g id="pencil" transform="translate(-12981.5 -11030.5)">
      <rect id="Rectangle_351" data-name="Rectangle 351" width="40.829" height="40.829" fill="none"/>
      <path id="Path_574" data-name="Path 574" d="M48.556,64.65H41.3a1.3,1.3,0,0,1-1.3-1.3V56.093a1.283,1.283,0,0,1,.373-.909L59.857,35.7a1.3,1.3,0,0,1,1.851,0l7.241,7.241a1.3,1.3,0,0,1,0,1.851L49.466,64.276A1.283,1.283,0,0,1,48.556,64.65Z" transform="translate(-33.506 -30.315)" fill="none" stroke="#fff" stroke-linecap="round" stroke-linejoin="round" stroke-width="1.5"/>
      <line id="Line_53" data-name="Line 53" x2="8.166" y2="8.166" transform="translate(24.497 8.166)" fill="none" stroke="#fff" stroke-linecap="round" stroke-linejoin="round" stroke-width="1.5"/>
      <line id="Line_54" data-name="Line 54" x1="16.219" y2="16.39" transform="translate(12 12.61)" fill="none" stroke="#fff" stroke-linecap="round" stroke-linejoin="round" stroke-width="1.5"/>
      <line id="Line_55" data-name="Line 55" x1="8.93" y1="8.93" transform="translate(6.576 25.324)" fill="none" stroke="#fff" stroke-linecap="round" stroke-linejoin="round" stroke-width="1.5"/>
    </g>
  </g>
</svg>
